<svg width="30" height="31" viewBox="0 0 30 31" fill="none" xmlns="http://www.w3.org/2000/svg">
<rect width="30.0007" height="30.0012" rx="6" fill="white"/>
<path d="M23.3175 7.49295C21.7875 6.80295 20.1475 6.29295 18.4325 6.00295C18.4172 6.00002 18.4014 6.00191 18.3872 6.00836C18.3731 6.01481 18.3613 6.0255 18.3535 6.03895C18.1435 6.40795 17.9095 6.88895 17.7455 7.26895C15.9266 6.99719 14.0774 6.99719 12.2585 7.26895C12.0758 6.84781 11.8698 6.43717 11.6415 6.03895C11.6337 6.02533 11.622 6.0144 11.6079 6.00761C11.5938 6.00082 11.578 5.9985 11.5625 6.00095C9.84848 6.29095 8.20848 6.80095 6.67748 7.49195C6.66431 7.49747 6.65314 7.5069 6.64548 7.51895C3.53348 12.094 2.68048 16.556 3.09948 20.962C3.10065 20.9727 3.104 20.9832 3.10933 20.9926C3.11465 21.0021 3.12185 21.0104 3.13048 21.017C4.94687 22.3394 6.97282 23.3468 9.12348 23.997C9.13847 24.0016 9.15451 24.0016 9.16949 23.9969C9.18448 23.9923 9.19772 23.9832 9.20748 23.9709C9.67028 23.352 10.0804 22.6954 10.4335 22.0079C10.4384 21.9986 10.4412 21.9882 10.4418 21.9776C10.4423 21.967 10.4406 21.9565 10.4367 21.9466C10.4328 21.9367 10.4269 21.9278 10.4192 21.9205C10.4116 21.9131 10.4025 21.9075 10.3925 21.9039C9.74649 21.6607 9.12057 21.3671 8.52048 21.0259C8.5097 21.0198 8.50061 21.0111 8.49404 21.0005C8.48746 20.99 8.48361 20.978 8.48281 20.9656C8.48202 20.9532 8.48432 20.9408 8.48949 20.9295C8.49467 20.9183 8.50257 20.9084 8.51248 20.9009C8.63848 20.8079 8.76448 20.711 8.88448 20.614C8.89528 20.6052 8.90829 20.5997 8.92206 20.5979C8.93584 20.5961 8.94983 20.5982 8.96248 20.604C12.8895 22.368 17.1425 22.368 21.0235 20.604C21.0362 20.5979 21.0503 20.5955 21.0643 20.5971C21.0782 20.5987 21.0915 20.6042 21.1025 20.6129C21.2225 20.7109 21.3475 20.8079 21.4745 20.9009C21.4845 20.9083 21.4925 20.918 21.4979 20.9292C21.5032 20.9403 21.5057 20.9527 21.5051 20.9651C21.5045 20.9774 21.5008 20.9895 21.4945 21.0001C21.4881 21.0107 21.4791 21.0196 21.4685 21.0259C20.8705 21.3699 20.2485 21.661 19.5955 21.903C19.5855 21.9066 19.5763 21.9123 19.5687 21.9198C19.561 21.9272 19.5551 21.9362 19.5512 21.9462C19.5473 21.9561 19.5456 21.9668 19.5462 21.9774C19.5467 21.9881 19.5496 21.9985 19.5545 22.0079C19.9145 22.6949 20.3265 23.3489 20.7795 23.9699C20.7889 23.9827 20.802 23.9922 20.8171 23.9972C20.8321 24.0022 20.8483 24.0025 20.8635 23.9979C23.0178 23.3496 25.0471 22.3417 26.8655 21.017C26.8744 21.0107 26.8818 21.0027 26.8873 20.9934C26.8928 20.9841 26.8963 20.9737 26.8975 20.9629C27.3975 15.8689 26.0595 11.443 23.3485 7.52095C23.3418 7.5082 23.3308 7.49827 23.3175 7.49295ZM11.0205 18.2789C9.83848 18.2789 8.86348 17.2099 8.86348 15.8989C8.86348 14.5869 9.81948 13.5189 11.0205 13.5189C12.2305 13.5189 13.1965 14.5959 13.1775 15.8989C13.1775 17.2109 12.2215 18.2789 11.0205 18.2789V18.2789ZM18.9955 18.2789C17.8125 18.2789 16.8385 17.2099 16.8385 15.8989C16.8385 14.5869 17.7935 13.5189 18.9955 13.5189C20.2055 13.5189 21.1715 14.5959 21.1525 15.8989C21.1525 17.2109 20.2065 18.2789 18.9955 18.2789V18.2789Z" fill="url(#paint0_linear_66_6)"/>
<defs>
<linearGradient id="paint0_linear_66_6" x1="-2" y1="15" x2="32" y2="15" gradientUnits="userSpaceOnUse">
<stop stop-color="#4C01E0"/>
<stop offset="1" stop-color="#8C2BE2"/>
</linearGradient>
</defs>
</svg>
