<svg width="30" height="31" viewBox="0 0 30 31" fill="none" xmlns="http://www.w3.org/2000/svg">
<path fill-rule="evenodd" clip-rule="evenodd" d="M19.25 3C19.5 4.375 18.875 5.75 18.125 6.75C17.375 7.75 16 8.625 14.625 8.5C14.375 7.125 15 5.875 15.75 4.875C16.625 3.875 18 3.125 19.25 3ZM23.25 24.75C23.875 23.75 24.25 23.125 24.75 22C20.875 20.5 20.25 15 24.125 13C23 11.5 21.375 10.75 19.75 10.75C18.625 10.75 17.875 11 17.125 11.25C16.5 11.5 16 11.625 15.375 11.625C14.625 11.625 14.125 11.375 13.375 11.125C12.625 10.875 11.875 10.625 11 10.625C9.24999 10.625 7.37499 11.625 6.24999 13.5C4.62499 16 4.87499 20.875 7.49999 24.875C8.62499 26.375 9.87499 28 11.5 28C12.25 28 12.625 27.75 13.125 27.625C13.75 27.375 14.375 27.125 15.375 27.125C16.5 27.125 17 27.375 17.625 27.625C18.125 27.875 18.5 28 19.25 28C21 28 22.25 26.125 23.25 24.75Z" stroke="white" stroke-width="1.5" stroke-miterlimit="10" stroke-linecap="round" stroke-linejoin="round"/>
</svg>
