<svg width="16" height="16" viewBox="0 0 16 16" fill="none" xmlns="http://www.w3.org/2000/svg">
<path d="M7.99996 7.9072L14.5045 4.35927C14.2976 3.67863 13.878 3.08223 13.3073 2.6576C12.7365 2.23298 12.0447 2.0025 11.3333 2H4.66662C3.95524 2.0025 3.2634 2.23298 2.69265 2.6576C2.12189 3.08223 1.70229 3.67863 1.49542 4.35927L7.99996 7.9072Z" fill="url(#paint0_linear_65_274)"/>
<path d="M8.31937 9.25175C8.22141 9.30515 8.11162 9.33313 8.00004 9.33313C7.88847 9.33313 7.77867 9.30515 7.68071 9.25175L1.33337 5.78955V10.6665C1.33441 11.5502 1.68594 12.3975 2.31083 13.0224C2.93573 13.6473 3.78297 13.9988 4.66671 13.9998H11.3334C12.2171 13.9988 13.0644 13.6473 13.6892 13.0224C14.3141 12.3975 14.6657 11.5502 14.6667 10.6665V5.78955L8.31937 9.25175Z" fill="url(#paint1_linear_65_274)"/>
<defs>
<linearGradient id="paint0_linear_65_274" x1="1.49542" y1="4.9536" x2="14.4733" y2="5.66811" gradientUnits="userSpaceOnUse">
<stop stop-color="#4A00E0"/>
<stop offset="1" stop-color="#8E2DE2"/>
</linearGradient>
<linearGradient id="paint1_linear_65_274" x1="1.33337" y1="9.89468" x2="14.6531" y2="10.4355" gradientUnits="userSpaceOnUse">
<stop stop-color="#4A00E0"/>
<stop offset="1" stop-color="#8E2DE2"/>
</linearGradient>
</defs>
</svg>
