<svg width="16" height="16" viewBox="0 0 16 16" fill="none" xmlns="http://www.w3.org/2000/svg">
<path d="M11.725 10.4653C11.5856 10.3255 11.42 10.2145 11.2377 10.1388C11.0554 10.0631 10.8599 10.0241 10.6625 10.0241C10.4651 10.0241 10.2696 10.0631 10.0873 10.1388C9.90493 10.2145 9.73935 10.3255 9.59999 10.4653L8.87499 11.1903C8.05869 10.6722 7.3024 10.0652 6.61999 9.38032C5.93511 8.69791 5.32806 7.94161 4.80999 7.12532L5.53499 6.40032C5.67483 6.26096 5.78578 6.09537 5.86149 5.91304C5.9372 5.73072 5.97617 5.53524 5.97617 5.33782C5.97617 5.1404 5.9372 4.94492 5.86149 4.76259C5.78578 4.58026 5.67483 4.41467 5.53499 4.27532L4.11999 2.86532C3.9826 2.72501 3.81841 2.61376 3.63717 2.53818C3.45594 2.46259 3.26135 2.42421 3.06499 2.42532C2.86723 2.42483 2.67133 2.46346 2.48855 2.53897C2.30578 2.61448 2.13974 2.72539 1.99999 2.86532L1.31999 3.54032C0.995875 3.8888 0.753975 4.30549 0.612072 4.75975C0.470169 5.21402 0.43187 5.69431 0.49999 6.16532C0.65999 8.04032 1.88999 10.2953 3.78499 12.1953C5.67999 14.0953 7.95999 15.3203 9.83499 15.5003C9.97489 15.5078 10.1151 15.5078 10.255 15.5003C10.6586 15.5173 11.0615 15.4535 11.4402 15.3127C11.8188 15.1718 12.1655 14.9569 12.46 14.6803L13.135 14.0003C13.2749 13.8606 13.3858 13.6945 13.4613 13.5118C13.5368 13.329 13.5755 13.1331 13.575 12.9353C13.5761 12.739 13.5377 12.5444 13.4621 12.3631C13.3865 12.1819 13.2753 12.0177 13.135 11.8803L11.725 10.4653Z" fill="url(#paint0_linear_65_268)"/>
<path d="M13.3 2.69501C12.6051 1.9975 11.7791 1.44443 10.8694 1.06771C9.95978 0.690978 8.98456 0.498039 8 0.500015C7.86739 0.500015 7.74021 0.552693 7.64645 0.646462C7.55268 0.74023 7.5 0.867407 7.5 1.00002C7.5 1.13262 7.55268 1.2598 7.64645 1.35357C7.74021 1.44734 7.86739 1.50002 8 1.50002C8.85824 1.49998 9.70799 1.66992 10.5002 2.00001C11.2924 2.3301 12.0114 2.81381 12.6157 3.42323C13.2201 4.03264 13.6977 4.7557 14.0211 5.55068C14.3445 6.34565 14.5073 7.19681 14.5 8.05502C14.5 8.18762 14.5527 8.3148 14.6464 8.40857C14.7402 8.50234 14.8674 8.55502 15 8.55502C15.1326 8.55502 15.2598 8.50234 15.3536 8.40857C15.4473 8.3148 15.5 8.18762 15.5 8.05502C15.5096 7.05998 15.3199 6.0731 14.942 5.15255C14.5642 4.23199 14.0059 3.3964 13.3 2.69501Z" fill="url(#paint1_linear_65_268)"/>
<path d="M10.455 5.55467C10.7387 5.83671 10.9632 6.17266 11.1152 6.54275C11.2672 6.91285 11.3436 7.3096 11.34 7.70967C11.34 7.84228 11.3927 7.96945 11.4864 8.06322C11.5802 8.15699 11.7074 8.20967 11.84 8.20967C11.9726 8.20967 12.0998 8.15699 12.1935 8.06322C12.2873 7.96945 12.34 7.84228 12.34 7.70967C12.3466 7.18019 12.248 6.65466 12.05 6.16357C11.8519 5.67249 11.5583 5.22561 11.1862 4.84886C10.8141 4.47212 10.3709 4.173 9.88236 3.96886C9.39377 3.76472 8.86951 3.65963 8.33999 3.65967C8.20739 3.65967 8.08021 3.71235 7.98644 3.80611C7.89267 3.89988 7.84 4.02706 7.84 4.15967C7.84 4.29228 7.89267 4.41945 7.98644 4.51322C8.08021 4.60699 8.20739 4.65967 8.33999 4.65967C8.73403 4.66264 9.12363 4.7432 9.48652 4.89677C9.84942 5.05034 10.1785 5.27389 10.455 5.55467Z" fill="url(#paint2_linear_65_268)"/>
<defs>
<linearGradient id="paint0_linear_65_268" x1="0.467194" y1="8.96561" x2="13.575" y2="9.29398" gradientUnits="userSpaceOnUse">
<stop stop-color="#4A00E0"/>
<stop offset="1" stop-color="#8E2DE2"/>
</linearGradient>
<linearGradient id="paint1_linear_65_268" x1="7.5" y1="4.52751" x2="15.5004" y2="4.72616" gradientUnits="userSpaceOnUse">
<stop stop-color="#4A00E0"/>
<stop offset="1" stop-color="#8E2DE2"/>
</linearGradient>
<linearGradient id="paint2_linear_65_268" x1="7.84" y1="5.93467" x2="12.3404" y2="6.04595" gradientUnits="userSpaceOnUse">
<stop stop-color="#4A00E0"/>
<stop offset="1" stop-color="#8E2DE2"/>
</linearGradient>
</defs>
</svg>
