<svg width="26" height="26" viewBox="0 0 26 26" fill="none" xmlns="http://www.w3.org/2000/svg">
<path d="M17.5392 2.16663H8.46085C4.51752 2.16663 2.16669 4.51746 2.16669 8.46079V17.5283C2.16669 21.4825 4.51752 23.8333 8.46085 23.8333H17.5284C21.4717 23.8333 23.8225 21.4825 23.8225 17.5391V8.46079C23.8334 4.51746 21.4825 2.16663 17.5392 2.16663ZM8.26585 19.6625C8.26585 20.1066 7.89752 20.475 7.45335 20.475C7.00919 20.475 6.64085 20.1066 6.64085 19.6625V17.42C6.64085 16.9758 7.00919 16.6075 7.45335 16.6075C7.89752 16.6075 8.26585 16.9758 8.26585 17.42V19.6625ZM13.8125 19.6625C13.8125 20.1066 13.4442 20.475 13 20.475C12.5559 20.475 12.1875 20.1066 12.1875 19.6625V15.1666C12.1875 14.7225 12.5559 14.3541 13 14.3541C13.4442 14.3541 13.8125 14.7225 13.8125 15.1666V19.6625ZM19.3592 19.6625C19.3592 20.1066 18.9909 20.475 18.5467 20.475C18.1025 20.475 17.7342 20.1066 17.7342 19.6625V12.9241C17.7342 12.48 18.1025 12.1116 18.5467 12.1116C18.9909 12.1116 19.3592 12.48 19.3592 12.9241V19.6625ZM19.3592 9.50079C19.3592 9.94496 18.9909 10.3133 18.5467 10.3133C18.1025 10.3133 17.7342 9.94496 17.7342 9.50079V8.44996C14.9717 11.2883 11.5159 13.2925 7.64835 14.2566C7.58335 14.2783 7.51835 14.2783 7.45335 14.2783C7.08502 14.2783 6.76002 14.0291 6.66252 13.6608C6.55419 13.2275 6.81419 12.7833 7.25835 12.675C10.9092 11.765 14.1592 9.84746 16.7375 7.13913H15.3834C14.9392 7.13913 14.5709 6.77079 14.5709 6.32663C14.5709 5.88246 14.9392 5.51413 15.3834 5.51413H18.5575C18.6009 5.51413 18.6334 5.53579 18.6767 5.53579C18.7309 5.54663 18.785 5.54663 18.8392 5.56829C18.8934 5.58996 18.9367 5.62246 18.9909 5.65496C19.0234 5.67663 19.0559 5.68746 19.0884 5.70913C19.0992 5.71996 19.0992 5.73079 19.11 5.73079C19.1534 5.77413 19.1859 5.81746 19.2184 5.86079C19.2509 5.90413 19.2834 5.93663 19.2942 5.97996C19.3159 6.02329 19.3159 6.06663 19.3267 6.12079C19.3375 6.17496 19.3592 6.22913 19.3592 6.29413C19.3592 6.30496 19.37 6.31579 19.37 6.32663V9.50079H19.3592Z" fill="url(#paint0_linear_330_10364)"/>
<defs>
<linearGradient id="paint0_linear_330_10364" x1="2.16669" y1="13" x2="23.8226" y2="13.5411" gradientUnits="userSpaceOnUse">
<stop stop-color="#4A00E0"/>
<stop offset="1" stop-color="#8E2DE2"/>
</linearGradient>
</defs>
</svg>
